PathFileType	4	(X/Y/Z)	C:/Users/opensim2020/Desktop/walking_exp_matlab/subject03_walking06_straight_04.trc																																																																																																																																		
DataRate	CameraRate	NumFrames	NumMarkers	Units	OrigDataRate	OrigDataStartFrame	OrigNumFrames																																																																																																																														
100	100	4	44	mm	100	2937	278																																																																																																																														
Frame#	Time	LFHD			RFHD			LBHD			RBHD			C7			T10			CLAV			STRN			RBAK			LSHO			LUPA			LELB			LFRM			LWRA			LWRB			LFIN			RSHO			RUPA			RELB			RFRM			RWRA			RWRB			RFIN			LASI			RASI			LPSI			RPSI			LTHI			LKNE			LTIB			LANK			LHEE			LTOE			RTHI			RKNE			RTIB			RANK			RHEE			RTOE			*39			*40			*41			*42			*43		
		X1	Y1	Z1	X2	Y2	Z2	X3	Y3	Z3	X4	Y4	Z4	X5	Y5	Z5	X6	Y6	Z6	X7	Y7	Z7	X8	Y8	Z8	X9	Y9	Z9	X10	Y10	Z10	X11	Y11	Z11	X12	Y12	Z12	X13	Y13	Z13	X14	Y14	Z14	X15	Y15	Z15	X16	Y16	Z16	X17	Y17	Z17	X18	Y18	Z18	X19	Y19	Z19	X20	Y20	Z20	X21	Y21	Z21	X22	Y22	Z22	X23	Y23	Z23	X24	Y24	Z24	X25	Y25	Z25	X26	Y26	Z26	X27	Y27	Z27	X28	Y28	Z28	X29	Y29	Z29	X30	Y30	Z30	X31	Y31	Z31	X32	Y32	Z32	X33	Y33	Z33	X34	Y34	Z34	X35	Y35	Z35	X36	Y36	Z36	X37	Y37	Z37	X38	Y38	Z38	X39	Y39	Z39	X40	Y40	Z40	X41	Y41	Z41	X42	Y42	Z42	X43	Y43	Z43	X44	Y44	Z44
																																																																																																																																					
209	2.08	612.29004	1609.96436	961.00513	602.09094	1616.8877	1093.3175	483.15677	1569.81824	956.8924	477.96005	1576.30469	1087.43213	443.38449	1411.2301	1012.38098	412.75757	1096.0387	1007.10297	563.79974	1334.10144	1022.99908	609.65808	1170.84741	1017.19067	382.39413	1231.68811	1098.73315	534.4234	1373.78845	865.3255	566.38141	1184.03467	787.79535	602.99042	1066.78552	775.1676	664.62506	952.79669	784.38831	711.17505	845.85199	821.67322	699.06726	845.11493	767.35626	740.46729	773.6709	781.38202	503.35736	1354.54712	1178.88745	492.10663	1130.33533	1247.23193	503.77911	1018.38617	1261.51953	518.97449	882.33362	1264.75757	554.15131	787.26697	1233.9353	516.24072	781.59357	1272.39551	539.6651	710.39374	1264.552	584.74664	936.39154	896.71216	575.08771	936.77393	1134.83752	421.79889	957.08087	942.22528	415.9054	957.80652	1090.45313	516.59631	633.49017	868.99884	501.10526	457.39212	912.0661	427.97989	273.35287	912.39764	380.86472	68.71295	957.52338	335.47849	36.26517	992.03601	529.4798	30.45207	981.80298	599.85028	648.25732	1186.77979	677.53217	485.54318	1157.91455	635.74768	297.04556	1157.80859	610.12823	82.21256	1110.64392	569.06757	51.97198	1053.98071	744.51898	40.02351	1105.20349	528.41669	1674.80444	1006.72144	NaN	NaN	NaN	NaN	NaN	NaN	NaN	NaN	NaN	NaN	NaN	NaN
210	2.09	620.67291	1608.93335	961.53442	610.57172	1615.69275	1093.80432	491.66968	1568.4823	957.4679	486.58051	1574.90735	1088.09631	452.30115	1410.07556	1012.89496	421.17609	1094.88782	1007.81885	572.56219	1332.80701	1023.26782	618.22906	1169.39563	1017.0705	391.11533	1230.39063	1099.01099	543.04071	1372.70313	865.71008	576.32227	1183.52527	787.88855	614.35742	1066.78979	775.27771	678.1748	954.12195	785.02228	727.1181	848.57367	823.07776	714.78394	846.96875	768.84363	757.74481	776.61237	783.51367	512.24146	1352.98132	1179.26831	499.11371	1128.77234	1247.60376	509.67392	1016.72394	1261.80408	522.80719	880.43103	1265.10803	556.43518	784.77515	1234.32886	518.43567	779.9248	1272.97913	540.64893	708.13855	1265.0741	592.75421	935.25458	896.6076	584.07886	935.18372	1134.70642	430.10892	955.86853	942.62189	424.7272	956.38074	1090.97864	522.36316	632.7149	868.98773	504.81512	456.65073	911.92413	430.14246	273.2309	912.34259	380.98056	69.01504	957.53772	335.47437	36.73342	992.06763	529.54834	30.44674	981.77478	608.0697	646.52942	1186.61072	685.98987	483.95715	1156.8728	652.93701	294.31833	1157.0282	639.41058	78.3429	1110.38904	600.47363	46.45754	1052.75549	776.44568	41.78036	1104.7533	537.05756	1673.14941	1006.18011	NaN	NaN	NaN	NaN	NaN	NaN	NaN	NaN	NaN	NaN	NaN	NaN
211	2.1	629.13873	1607.8916	962.08521	619.12701	1614.47888	1094.41528	500.02264	1567.20093	958.38379	495.17828	1573.36121	1088.73206	461.18829	1408.82935	1013.49854	429.65826	1093.66895	1008.54572	581.38959	1331.46301	1023.56915	626.87018	1168.02844	1016.98993	399.88736	1229.12622	1099.40723	551.74023	1371.56543	866.17633	586.24542	1183.0105	788.01361	625.65234	1066.77087	775.41919	691.50354	955.38574	785.80066	742.59833	851.25745	824.54712	730.13977	848.77319	770.44873	774.71252	779.57959	785.73456	521.22351	1351.42981	1179.7439	506.40521	1127.36316	1247.80139	515.76654	1015.09497	1262.05273	526.8385	878.57813	1265.44543	558.97217	782.38208	1234.78711	521.0025	778.18872	1273.56262	541.91724	705.98224	1265.57764	600.84851	933.98413	896.48572	593.20691	933.49146	1134.60254	438.37927	954.61694	943.12494	433.60733	954.84857	1091.50903	528.17926	631.93359	868.92804	508.81747	455.79459	911.8006	432.4299	273.16852	912.35815	381.01776	69.59898	957.63904	335.68787	37.313	992.55988	529.55951	30.37117	981.68262	615.64355	644.35663	1186.53418	694.02222	482.17075	1155.8053	669.46503	291.94507	1156.26013	668.40491	75.22404	1110.11694	631.80914	41.75232	1052.23059	807.33942	44.0098	1104.5896	545.60773	1671.52869	1006.46991	NaN	NaN	NaN	NaN	NaN	NaN	NaN	NaN	NaN	NaN	NaN	NaN
212	2.11	637.59033	1606.80774	962.68347	627.61969	1613.28296	1094.98376	508.75919	1565.72168	958.77472	503.90784	1571.86572	1089.42346	470.20966	1407.38452	1013.73517	438.26947	1092.48132	1009.37463	590.24182	1330.12305	1023.93896	635.46472	1166.59119	1016.97699	408.81839	1227.84277	1099.86157	560.42908	1370.42822	866.65308	595.91724	1182.3717	788.28619	636.79071	1066.646	775.68066	704.4967	956.57959	786.67023	757.60425	853.8374	826.20416	745.1123	850.54492	772.16382	791.17426	782.52057	788.07129	530.24042	1349.92432	1180.17065	513.78516	1125.88818	1247.99658	522.07831	1013.50043	1262.30847	531.10144	876.79669	1265.75598	561.78973	780.09814	1235.35315	523.69122	776.48492	1274.14014	543.33679	703.92908	1266.19617	609.00989	932.81055	896.5423	602.43018	931.74982	1134.57935	446.54025	953.37189	943.77502	442.60428	953.26624	1092.16797	534.11365	631.22583	868.8609	513.20935	455.28915	911.60437	434.72003	273.18689	912.37164	381.44104	69.98479	957.729	335.72589	38.14735	992.79749	529.54956	30.3201	981.71344	622.57751	642.04865	1186.12415	701.64044	480.16776	1154.5979	685.30432	289.80478	1155.45398	696.44281	72.95612	1109.58679	661.7937	38.63745	1051.52197	837.17303	46.67238	1104.57556	553.36755	1670.74646	1007.97552	NaN	NaN	NaN	NaN	NaN	NaN	NaN	NaN	NaN	NaN	NaN	NaN
